<svg xmlns="http://www.w3.org/2000/svg" viewBox="10 0 115 110">
  <defs>
    <linearGradient id="favBerry" x1="0%" y1="0%" x2="100%" y2="0%">
      <stop offset="0%" stop-color="#8B263E" />
      <stop offset="50%" stop-color="#A8324A" />
      <stop offset="100%" stop-color="#C4435D" />
    </linearGradient>
    <filter id="favGlow" x="-20%" y="-20%" width="140%" height="140%">
      <feGaussianBlur stdDeviation="1.5" result="blur" />
      <feComposite in="SourceGraphic" in2="blur" operator="over" />
    </filter>
  </defs>
  <rect x="10" y="0" width="115" height="110" rx="24" fill="#FFF7F9" />
  <g transform="translate(10, 10)">
    <g transform="translate(10, 0)">
      <path d="M 50 10 A 40 40 0 1 0 90 50" fill="none" stroke="url(#favBerry)" stroke-width="2.5" stroke-linecap="round" opacity="0.4" />
      <path d="M 50 18 L 30 75 Q 38 78 48 68 Q 62 55 45 42 Q 30 30 52 18 Z" fill="none" stroke="url(#favBerry)" stroke-width="3.5" stroke-linecap="round" stroke-linejoin="round" />
      <line x1="38" y1="52" x2="58" y2="52" stroke="url(#favBerry)" stroke-width="2.5" stroke-linecap="round" />
      <path d="M 58 22 C 68 15 78 20 75 32 C 65 35 58 28 58 22 Z" fill="#6B705C" opacity="0.9" />
      <polygon points="76,14 78,20 84,22 78,24 76,30 74,24 68,22 74,20" fill="url(#favBerry)" filter="url(#favGlow)" />
    </g>
  </g>
</svg>
